PathFileType	4	(X/Y/Z)	C:/Users/beibeiliu/ov580/test_trc/User2\sequence.33_training_dense_right.trc
DataRate	CameraRate	NumFrames	NumMarkers	Units	OrigDataRate	OrigDataStartFrame	OrigNumFrames
120	120	22	19	mm	120	1	424
Frame#	Time	ThumbCMC			ThumbMCP			ThumbIP			ThumbTip			IndexMCP			IndexPIP			IndexTip			MiddleMCP			MiddlePIP			MiddleTip			RingMCP			RingPIP			RingTip			PinkyMCP			PinkyPIP			PinkyTip			BackHand1			BackHand2			BackHand3	
		X0	Y0	Z0	X1	Y1	Z1	X2	Y2	Z2	X3	Y3	Z3	X4	Y4	Z4	X5	Y5	Z5	X6	Y6	Z6	X7	Y7	Z7	X8	Y8	Z8	X9	Y9	Z9	X10	Y10	Z10	X11	Y11	Z11	X12	Y12	Z12	X13	Y13	Z13	X14	Y14	Z14	X15	Y15	Z15	X16	Y16	Z16	X17	Y17	Z17	X18	Y18	Z18	
0	0	52.1624	-57.5989	83.9881	21.7549	-64.7772	68.4995	-0.0852636	-75.4144	43.2105	-13.6606	-85.6278	25.8472	55.7648	-55.0102	-1.81428	49.2625	-63.4203	-32.6265	42.6449	-73.0699	-55.3753	85.179	-57.2046	-13.065	80.29	-69.0088	-43.5417	82.6233	-86.9816	-72.5698	108.264	-67.7513	-9.51744	110.261	-79.3342	-35.191	112.772	-93.0099	-61.9139	129.845	-77.7221	6.24226	137.342	-92.0022	-15.8524	143.462	-103.634	-34.9478	110.431	-45.861	45.4527	113.264	-34.1676	78.3391	77.4052	-36.7702	65.3311	
1	0.00833333	48.9702	-57.5863	79.2934	25.8259	-65.7631	68.5889	1.14543	-75.6639	41.4508	-16.4829	-85.9156	28.9897	55.2548	-55.7555	-1.94648	46.4349	-61.9804	-32.272	45.3296	-75.1	-58.9443	81.1426	-57.1727	-12.0169	78.93	-70.672	-47.2213	81.5144	-87.2615	-74.5985	105.508	-67.8938	-12.0326	114.108	-78.8925	-32.197	111.003	-92.4015	-61.6579	128.814	-77.7391	6.85346	137.446	-92.4892	-16.9131	139.245	-105.454	-38.4285	109.71	-46.1845	45.405	113.038	-35.1097	77.7732	75.992	-36.1123	61.9061	
2	0.0166667	48.8332	-57.0961	84.751	25.7243	-66.0787	66.1271	-0.043261	-75.2182	42.5863	-13.7197	-85.2189	26.7371	55.5631	-56.0168	-2.4413	46.0109	-61.6513	-28.3815	46.0256	-73.7942	-55.9543	80.9135	-58.331	-16.9342	78.7019	-70.4551	-46.671	81.764	-88.3045	-75.481	108.443	-67.9173	-10.4775	109.999	-78.65	-32.2006	111.642	-92.7923	-60.0678	129.26	-77.1228	5.15737	137.027	-92.5069	-14.0634	139.836	-103.352	-34.792	110.576	-46.2409	44.2607	115.842	-34.9357	74.6937	78.2871	-35.6453	63.1494	
3	0.025	47.4703	-56.6587	81.9558	23.7152	-64.6844	69.1137	0.493173	-74.4342	40.8848	-16.2196	-84.8222	26.3418	53.8009	-55.2709	-0.483065	45.8903	-62.956	-32.3888	46.9718	-74.1441	-57.531	85.2817	-57.4913	-15.0613	82.7789	-70.7563	-47.7358	84.3291	-87.6766	-73.6073	107.208	-66.871	-12.3501	111.737	-78.9871	-36.2368	110.548	-92.7816	-60.7082	129.191	-76.8254	6.47289	135.672	-91.2789	-12.4982	141.647	-105.095	-37.9347	108.038	-44.289	44.269	114.888	-36.5398	78.0277	74.4394	-36.8228	60.3481	
4	0.0333333	46.3955	-55.2332	80.3495	24.7095	-64.1789	67.4988	0.282558	-73.5029	42.185	-15.6287	-84.4761	25.345	55.1804	-54.5809	-4.77826	46.1543	-60.5182	-29.9962	47.3663	-73.8926	-56.9466	81.1254	-55.6544	-11.8435	80.8324	-70.3755	-47.6881	81.4327	-85.4534	-72.7748	106.832	-66.1663	-7.51068	109.101	-78.9144	-37.0537	111.073	-92.1521	-62.7764	130.542	-76.8537	9.15749	136.862	-92.2025	-17.3043	141.486	-106.2	-37.938	109.241	-44.5193	47.209	117.95	-34.5709	76.985	80.4532	-36.1173	63.1593	
5	0.0416667	46.9958	-56.3346	79.2095	26.5842	-65.1629	66.4684	2.9863	-74.7321	45.9471	-13.8753	-84.5569	28.5023	52.5457	-55.1425	-2.84394	50.2297	-61.9985	-32.6825	41.1535	-74.3716	-59.2788	83.6962	-56.0444	-12.3027	83.6414	-68.2799	-45.0559	81.117	-84.7001	-71.3939	105.982	-66.7257	-11.185	112.37	-77.5734	-34.1935	108.999	-91.3183	-58.9728	132.348	-77.8874	5.79405	135.12	-90.4085	-14.4838	143.811	-105.424	-39.4746	113.247	-46.2883	44.1166	115.012	-36.3275	74.5645	79.7637	-36.9799	59.2638	
6	0.05	49.2916	-57.154	79.9444	23.1273	-63.5378	68.7518	-2.26058	-73.2602	44.3849	-17.6953	-84.3535	30.2969	53.6361	-55.292	-3.24015	44.8242	-61.7721	-32.3443	46.5068	-74.1309	-58.4967	80.599	-55.6193	-13.4551	80.9492	-68.4486	-44.8575	81.3875	-85.8839	-73.0194	109.88	-66.3548	-11.1101	113.114	-77.676	-34.3393	112.318	-90.9618	-59.1791	129.203	-76.476	7.82847	138.78	-92.6362	-15.7687	143.168	-105.954	-39.6431	109.752	-44.0503	46.8935	112.733	-35.7442	77.0078	77.3258	-37.2406	60.3463	
7	0.0583333	48.8049	-56.7076	84.3259	23.4553	-63.8628	68.4794	-1.02335	-73.6675	45.6799	-18.0882	-83.7474	28.8002	51.498	-54.5493	-3.46403	47.7603	-63.2179	-34.2253	43.7946	-74.829	-60.8221	82.3335	-57.1247	-15.3364	80.7615	-69.671	-46.3452	83.5894	-88.5453	-76.7287	110.273	-67.619	-11.674	113.961	-78.6642	-35.6325	109.38	-90.4317	-59.6065	129.327	-75.7274	8.65392	135.215	-90.1088	-13.6909	143.43	-103.245	-37.8582	108.577	-43.5978	42.1735	113.632	-34.4024	78.2023	75.3114	-35.7363	63.1785	
8	0.0666667	50.6866	-57.8486	79.0324	23.6092	-64.4826	69.0873	1.55915	-74.3305	47.0557	-17.0044	-84.7695	31.3934	53.5424	-55.8036	-4.73136	46.6533	-61.8724	-32.6514	45.7913	-73.2867	-56.6254	83.1308	-56.6065	-14.1437	81.5535	-71.0111	-48.3251	81.2961	-85.6351	-71.2922	106.985	-65.5483	-8.3215	110.508	-77.8303	-33.0216	111.104	-92.062	-62.2278	130.705	-76.5407	6.7762	133.938	-91.8743	-16.3722	143.154	-104.471	-34.6846	113.165	-43.9376	43.2713	116.699	-35.8342	74.7767	79.1422	-37.1114	63.6576	
9	0.075	49.2065	-56.5114	84.1935	23.1346	-65.3868	68.5883	0.184406	-74.2108	47.2484	-17.5157	-84.2114	29.3118	55.5132	-55.3161	-4.73381	45.3771	-61.6961	-28.9041	44.36	-75.6074	-58.671	79.4682	-56.4245	-16.5207	80.7659	-70.7038	-48.0063	79.9166	-85.2626	-72.3202	107.728	-65.7871	-8.44616	109.082	-77.7261	-33.086	108.989	-91.636	-60.511	132.588	-77.1928	6.80513	134.927	-91.5186	-15.8568	138.49	-102.588	-37.682	108.231	-45.9474	46.6757	116.208	-36.9636	73.8748	80.9115	-35.5564	63.8679	
10	0.0833333	51.1089	-57.0582	80.261	21.1222	-64.0436	66.3897	-2.6677	-74.8153	45.3244	-16.6138	-85.392	26.935	53.6238	-54.8568	-0.958069	44.7821	-62.7618	-32.9716	47.3391	-73.8174	-57.1991	81.928	-57.413	-15.7582	83.4299	-68.7123	-45.0395	82.052	-86.3923	-72.562	109.162	-67.2162	-12.0401	110.555	-77.8756	-34.072	109.682	-91.742	-60.3434	132.921	-78.1298	6.83702	134.613	-91.627	-15.7621	139.838	-104.11	-40.442	108.67	-45.1674	47.9802	115.192	-34.5731	77.4826	79.7078	-37.9365	64.4832	
11	0.0916667	50.809	-57.4203	84.3612	27.2905	-64.8878	66.4519	-0.633354	-74.4569	40.5677	-17.8531	-84.3141	24.7441	52.4202	-55.4495	-3.68045	48.0827	-62.3218	-33.0764	45.5356	-75.5832	-59.6554	80.2895	-56.6139	-12.7838	82.3644	-69.2568	-46.6732	79.5292	-85.6101	-73.5653	109.196	-66.3774	-11.5988	112.4	-78.1798	-33.8657	109.521	-92.9008	-62.2964	129.235	-77.6218	2.74421	137.093	-92.3942	-18.4395	142.608	-104.478	-38.3678	110.995	-45.672	42.4523	114.955	-35.8276	75.9531	75.8372	-38.1232	60.6046	
12	0.1	49.4026	-55.9334	82.8024	27.1462	-63.9806	65.3421	2.80727	-73.5835	44.3253	-14.1682	-82.5182	27.1297	53.1908	-53.915	-6.68307	50.2711	-62.1508	-33.5451	44.8183	-73.4532	-56.0924	81.3996	-56.4555	-18.236	85.598	-71.249	-48.9299	84.112	-87.2818	-73.6854	109.669	-66.8219	-12.9975	115.581	-79.4885	-37.1082	110.278	-91.4231	-62.6088	133.557	-77.2945	3.52793	136.814	-91.5784	-17.3747	141.378	-104.15	-38.8908	110.907	-43.1873	43.3628	115.971	-36.6504	75.0777	78.258	-34.8186	63.252	
13	0.108333	54.4911	-56.3772	77.9075	27.7879	-63.8734	63.3635	5.67433	-71.988	40.5662	-12.1421	-81.7111	26.6597	60.0663	-54.5957	-5.39048	54.5726	-61.6716	-34.6504	49.1334	-75.2994	-62.7026	89.3777	-56.0027	-14.9438	88.3163	-69.074	-46.2711	87.5746	-88.8247	-76.6045	114.85	-67.9585	-14.098	112.189	-78.5207	-35.5501	114.933	-91.0571	-59.4968	136.83	-77.0862	7.15097	141.385	-93.407	-18.1104	142.737	-103.072	-36.7654	113.072	-44.0356	46.054	118.098	-36.3606	73.3423	79.7622	-34.3426	62.4106	
14	0.116667	53.9777	-56.5245	76.7317	26.7001	-63.2215	64.1327	6.50806	-72.1718	38.6757	-12.1405	-81.115	19.1876	59.7883	-54.7363	-10.2992	57.5267	-64.2859	-38.2134	52.0865	-75.9758	-61.5576	87.4396	-57.4936	-17.5125	91.923	-69.9091	-46.6398	90.0479	-89.3975	-76.4231	117.851	-68.4212	-13.049	118.399	-80.299	-39.4408	116.858	-93.7364	-64.7729	137.504	-78.2335	6.53409	146.621	-92.2578	-14.4933	149.103	-105.669	-39.6597	118.121	-45.7581	43.5356	117.943	-35.7472	74.4901	82.0135	-37.5351	57.594	
15	0.125	54.5999	-55.5351	74.6191	31.1742	-63.7128	60.4903	7.84347	-71.9229	37.2711	-7.05682	-81.5882	19.9381	62.9207	-55.8172	-11.1383	58.7254	-65.7677	-39.8384	55.6948	-77.4724	-63.7838	92.2196	-59.1824	-21.0242	91.2697	-72.5221	-51.5708	92.4636	-88.7923	-76.7022	116.864	-68.3034	-15.3929	125.487	-79.1664	-35.9386	124.344	-93.794	-64.1631	141.635	-78.8955	5.26148	149.316	-93.6998	-15.333	153.151	-105.855	-38.4978	122.159	-44.9658	43.1442	124.04	-35.9728	70.81	85.3165	-37.466	59.3427	
16	0.133333	60.1888	-57.0013	73.3804	32.006	-63.3477	57.6204	12.4684	-72.8479	30.6036	-4.93142	-82.5832	14.9103	67.206	-57.0847	-13.7461	62.4941	-66.1048	-40.2743	65.3547	-80.1017	-67.5609	95.3645	-58.1662	-19.1057	96.4783	-72.247	-49.9668	102.713	-90.4931	-76.3658	121.026	-68.0375	-11.4907	127.087	-81.676	-39.1688	127.671	-94.9015	-65.6772	145.027	-78.5795	7.49333	151.411	-95.6665	-18.2125	157.011	-107.363	-39.7162	122.668	-44.7194	42.9302	125.973	-35.1326	73.4945	88.7281	-37.8351	58.7002	
17	0.141667	58.8983	-55.825	70.8862	36.603	-64.9127	52.7399	12.1507	-72.9799	32.903	-2.18512	-82.1654	16.0772	73.5586	-58.5157	-15.4324	70.7264	-67.6923	-42.0334	70.8741	-81.4427	-65.9627	101.733	-60.9654	-22.4739	103.236	-75.1268	-53.4083	103.301	-91.8607	-79.0803	123.736	-69.4524	-15.2721	133.101	-83.9048	-40.5105	130.545	-95.6373	-63.5661	146.384	-79.8895	3.02332	155.415	-96.1826	-18.2	164.607	-106.231	-36.3503	126.006	-45.2909	41.8765	127.182	-35.0386	74.6159	87.5448	-37.7906	57.2965	
18	0.15	58.0543	-54.9415	74.2755	36.1709	-63.7038	52.5307	12.3356	-72.9425	32.6269	-3.11496	-82.097	13.4061	72.3665	-59.4663	-13.6115	72.9309	-68.5343	-40.3156	76.4769	-84.2491	-68.861	100.794	-61.0868	-24.1048	106.8	-74.6567	-49.7326	111.377	-95.0222	-79.005	129.801	-69.9236	-11.5297	132.871	-81.8281	-36.505	133.603	-97.5172	-64.0413	147.505	-79.3091	6.69624	156.16	-96.0171	-18.7364	164.099	-106.977	-34.3911	122.631	-46.0581	39.7416	124.31	-37.7115	72.1591	91.1588	-37.4577	55.1674	
19	0.158333	58.4077	-55.8293	70.3324	38.6071	-64.5455	50.745	16.4697	-74.1582	31.3117	-1.12501	-83.9143	12.0273	74.3644	-61.2887	-11.901	73.5119	-70.4703	-41.8668	73.7077	-85.1865	-66.0623	106.744	-62.8902	-23.5332	108.322	-77.3159	-52.3501	111.181	-96.8409	-80.0159	129.701	-72.3136	-16.2622	131.555	-83.8592	-39.216	134.908	-100.282	-66.0341	146.376	-80.3649	6.92066	156.945	-95.6236	-15.4408	162.321	-107.093	-39.8056	122.655	-46.8614	37.2857	126.391	-36.8978	68.4869	92.0261	-37.7918	56.2027	
20	0.166667	60.8725	-58.1356	67.7159	37.6825	-65.0857	54.2007	10.9894	-74.6474	30.3712	2.37129	-85.8605	9.82203	78.7692	-62.6352	-14.7664	73.2139	-71.8651	-42.8393	75.5605	-88.1446	-67.0432	102.495	-62.119	-20.8396	108.186	-75.9832	-50.9035	108.622	-98.0777	-81.5495	128.165	-72.4144	-16.5179	132.122	-85.6109	-40.7944	138.307	-99.7877	-62.3011	151.315	-82.1004	5.61298	158.8	-96.8442	-13.4289	166.694	-109.154	-35.9286	127.924	-46.6516	41.4944	128.06	-36.0504	70.685	87.0811	-40.0551	50.5265	
21	0.175	57.546	-57.7694	66.4754	36.7138	-67.5114	48.7293	10.0493	-76.3081	27.2663	-1.28306	-87.8927	11.5213	76.6109	-63.8227	-19.1669	73.8279	-71.6781	-42.4929	77.3972	-91.3357	-71.3084	103.382	-63.9157	-24.2974	104.193	-79.0159	-55.4602	110.129	-98.5833	-81.1691	130.35	-73.4596	-17.6788	133.507	-85.1351	-37.4882	138.297	-99.6928	-63.3072	150.281	-83.0637	2.18998	156.029	-98.1225	-16.9149	163.784	-109.603	-37.6444	121.226	-46.4517	40.6319	124.727	-37.6391	69.9592	90.3452	-39.152	52.6001	
